<?xml version="1.0" encoding="utf-8"?>
<!-- Generator: Adobe Illustrator 22.1.0, SVG Export Plug-In . SVG Version: 6.00 Build 0)  -->
<svg version="1.1" id="Layer_1" xmlns="http://www.w3.org/2000/svg" xmlns:xlink="http://www.w3.org/1999/xlink" x="0px" y="0px"
	 viewBox="0 0 20 20" style="enable-background:new 0 0 20 20;" xml:space="preserve">
<g>
	<g transform="translate(600 600) scale(0.69 0.69) rotate(0) translate(-600 -600)">
		<g>
			<path class="st0" d="M-243.9-266.2h-6.8v-1.3c0-1.2-0.9-2.1-2.1-2.1h-4.7c-1.2,0-2.1,0.9-2.1,2.1v1.3h-6.8
				c-0.5,0-0.8,0.4-0.8,0.8c0,0.5,0.4,0.8,0.8,0.8h1.4v20.3c0,2,1.6,3.6,3.6,3.6h12.3c2,0,3.6-1.6,3.6-3.6v-20.3h1.3
				c0.5,0,0.8-0.4,0.8-0.8C-243.1-265.8-243.4-266.2-243.9-266.2z M-257.9-267.5c0-0.3,0.2-0.5,0.5-0.5h4.7c0.3,0,0.5,0.2,0.5,0.5
				v1.3h-5.6V-267.5z M-247-244.3c0,1.1-0.9,1.9-1.9,1.9h-12.4c-1.1,0-1.9-0.9-1.9-1.9v-20.3h16.3V-244.3z"/>
			<path class="st0" d="M-255.1-245.6c0.5,0,0.8-0.4,0.8-0.8v-14c0-0.5-0.4-0.8-0.8-0.8c-0.4,0-0.8,0.4-0.8,0.8v14
				C-255.9-246-255.6-245.6-255.1-245.6z"/>
			<path class="st0" d="M-250.5-245.6c0.5,0,0.8-0.4,0.8-0.8v-14c0-0.5-0.4-0.8-0.8-0.8c-0.5,0-0.8,0.4-0.8,0.8v14
				C-251.2-246-250.9-245.6-250.5-245.6z"/>
			<path class="st0" d="M-259.8-245.6c0.5,0,0.8-0.4,0.8-0.8v-14c0-0.5-0.4-0.8-0.8-0.8c-0.5,0-0.8,0.4-0.8,0.8v14
				C-260.6-246-260.2-245.6-259.8-245.6z"/>
		</g>
	</g>
</g>
</svg>
