<?xml version="1.0" encoding="utf-8"?>
<!-- Generator: Adobe Illustrator 22.1.0, SVG Export Plug-In . SVG Version: 6.00 Build 0)  -->
<svg version="1.1" id="Layer_1" x="0px" y="0px"
	viewBox="0 0 1200 1200" style="enable-background:new 0 0 1200 1200;" xml:space="preserve">	
	<g>
		<g transform="translate(600 600) scale(0.69 0.69) rotate(0) translate(-600 -600)">
			<g transform="translate(0,-952.36218)">
				<path class="st0" d="M-139.1,791.5c-72,0-130.4,58.4-130.4,130.4c0,72,58.4,130.4,130.4,130.4h1478.3
				c72,0,130.4-58.4,130.4-130.4c0-72-58.4-130.4-130.4-130.4H-139.1z M-139.1,1421.9c-72,0-130.4,58.4-130.4,130.4
				c0,72,58.4,130.4,130.4,130.4h1478.3c72,0,130.4-58.4,130.4-130.4c0-72-58.4-130.4-130.4-130.4H-139.1z M-139.1,2052.4
				c-72,0-130.4,58.4-130.4,130.4c0,72,58.4,130.4,130.4,130.4h1478.3c72,0,130.4-58.4,130.4-130.4c0-72-58.4-130.4-130.4-130.4
				H-139.1z" />
			</g>
		</g>
	</g>
</svg>